<?xml version="1.0" encoding="utf-8"?>
<!-- Generator: Adobe Illustrator 24.0.0, SVG Export Plug-In . SVG Version: 6.00 Build 0)  -->
<svg version="1.1" id="레이어_1" xmlns="http://www.w3.org/2000/svg" xmlns:xlink="http://www.w3.org/1999/xlink" x="0px"
	 y="0px" viewBox="0 0 126.7 60" style="enable-background:new 0 0 126.7 60;" xml:space="preserve">
<style type="text/css">
	.st0{opacity:0.9;fill:url(#SVGID_1_);enable-background:new    ;}
	.st1{fill:#FFFFFF;}
	.st2{opacity:0.1;fill:#040000;enable-background:new    ;}
	.st3{opacity:0.9;fill:url(#SVGID_2_);enable-background:new    ;}
	.st4{fill:none;}
</style>
<title>프랜드 뉴 로고-sizefix-center</title>
<g>
	
		<linearGradient id="SVGID_1_" gradientUnits="userSpaceOnUse" x1="-11.3576" y1="48.6193" x2="159.3593" y2="6.6482" gradientTransform="matrix(1 0 0 -1 0 61.3948)">
		<stop  offset="0" style="stop-color:#940A80"/>
		<stop  offset="0.13" style="stop-color:#AF136E"/>
		<stop  offset="0.34" style="stop-color:#D82154"/>
		<stop  offset="0.45" style="stop-color:#E7264A"/>
		<stop  offset="0.55" style="stop-color:#E8343B"/>
		<stop  offset="0.85" style="stop-color:#EB5812"/>
		<stop  offset="1" style="stop-color:#EC6603"/>
	</linearGradient>
	<path class="st0" d="M118.5,21.1c-2.3-2.7-5.7-4.1-10-4.1H16.1c-4.7-0.1-8.6-4.1-8.6-9.1V35c0,5.7,4.4,10.3,9.8,10.3h88.3
		c8.3,0,14.5-5.6,15.5-13.9C121.7,27.4,120.7,23.7,118.5,21.1z"/>
	<g>
		<path class="st1" d="M27.8,28.5h-5.9l0.3-2.5h7.6c0.3,0,0.6-0.2,0.6-0.5l0.5-4.3c0-0.2,0-0.3-0.1-0.5c-0.1-0.1-0.3-0.2-0.5-0.2
			H17.3c-0.3,0-0.6,0.2-0.6,0.5l-2.5,20c0,0.2,0,0.3,0.1,0.5c0.1,0.1,0.3,0.2,0.5,0.2h4.9c0.3,0,0.6-0.2,0.6-0.5l0.9-7.5h6.1
			c0.3,0,0.6-0.2,0.6-0.5l0.5-3.8c0-0.2,0-0.3-0.1-0.5C28.2,28.6,28,28.5,27.8,28.5z"/>
		<path class="st1" d="M41.8,20.5h-9.2c-0.3,0-0.6,0.2-0.6,0.5l-2.5,19.9c0,0.2,0,0.3,0.2,0.5c0.1,0.1,0.3,0.2,0.5,0.2h4.9
			c0.3,0,0.6-0.2,0.6-0.5l0.7-6h1.2l3.5,6.2c0.1,0.2,0.3,0.3,0.5,0.3h5.7c0.2,0,0.4-0.1,0.5-0.3c0.1-0.2,0.1-0.4,0-0.6L44,34.5l0,0
			c2.8-1.1,4.7-3.8,5.1-7c0.3-2-0.2-3.7-1.3-4.9C46.6,21.2,44.6,20.5,41.8,20.5z M37.7,25.5h3c0.8,0,1.5,0.3,1.9,0.7
			c0.4,0.4,0.5,1,0.4,1.6c-0.2,1.4-1.3,2.3-2.9,2.3h-3L37.7,25.5z"/>
		<path class="st1" d="M57.8,20.7c-0.1-0.1-0.3-0.2-0.5-0.2h-4.9c-0.3,0-0.6,0.2-0.6,0.5l-2.5,19.9c0,0.2,0,0.3,0.1,0.5
			c0.1,0.1,0.3,0.2,0.5,0.2h4.9c0.3,0,0.6-0.2,0.6-0.5l2.5-20C58,21,57.9,20.8,57.8,20.7z"/>
		<path class="st1" d="M73.2,26c0.3,0,0.6-0.2,0.6-0.5l0.5-4.3c0-0.2,0-0.3-0.1-0.5c-0.1-0.1-0.3-0.2-0.5-0.2H60.7
			c-0.3,0-0.6,0.2-0.6,0.5l-2.5,20c0,0.2,0,0.3,0.1,0.5c0.1,0.1,0.3,0.2,0.5,0.2h13.1c0.3,0,0.6-0.2,0.6-0.5l0.5-4.3
			c0-0.2,0-0.3-0.1-0.5c-0.1-0.1-0.3-0.2-0.5-0.2h-7.5l0.3-2.5h6.1c0.3,0,0.6-0.2,0.6-0.5l0.5-3.8c0-0.2,0-0.3-0.1-0.5
			c-0.1-0.1-0.3-0.2-0.5-0.2h-5.9l0.3-2.5L73.2,26z"/>
		<path class="st1" d="M96.3,20.7c-0.1-0.1-0.3-0.2-0.5-0.2h-4.9c-0.3,0-0.6,0.2-0.6,0.5L88.9,32l-6.6-11.3
			c-0.1-0.2-0.3-0.3-0.5-0.3h-5.2c-0.3,0-0.6,0.2-0.6,0.5l-2.5,19.9c0,0.2,0,0.3,0.1,0.5c0.1,0.1,0.3,0.2,0.5,0.2h4.9
			c0.3,0,0.6-0.2,0.6-0.5L81,30l6.6,11.3c0.1,0.2,0.3,0.3,0.5,0.3h5.2c0.3,0,0.6-0.2,0.6-0.5l2.5-20C96.4,21,96.4,20.8,96.3,20.7z"
			/>
		<path class="st1" d="M115.2,23.5c-1.8-2-4.5-3-7.9-3h-8.1c-0.3,0-0.6,0.2-0.6,0.5l-2.5,19.9c0,0.2,0,0.3,0.1,0.5
			c0.1,0.1,0.3,0.2,0.5,0.2h8c6.7,0,11.8-4.2,12.6-10.6C117.6,28,116.9,25.3,115.2,23.5z M104.1,26h3.1c1.1,0,2.1,0.5,2.8,1.4
			c0.9,1,1.3,2.3,1.2,3.7c-0.4,2.8-3.2,5-5.2,5h-3.1L104.1,26z"/>
	</g>
	<g>
		<polygon class="st2" points="7.5,31.8 7.5,34.8 7.5,34.8 7.5,31.8 		"/>
		<path class="st2" d="M37.6,18.1C37.6,18.1,37.6,18.1,37.6,18.1c-0.2-0.4-0.4-0.8-0.8-1.1H16.7c-4.6,0-8.4-3.4-9-7.9
			C7.6,9.4,7.5,9.6,7.5,9.9v21.9l0,0V35c0,0.2,0,0.4,0,0.6c0,0,0,0.1,0,0.1c0,0.6,0.1,1.1,0.2,1.7c0.6-2,2.3-3.6,4.5-4.6l0.1,0
			l2-0.8L35.6,23C37.5,22.2,38.4,20,37.6,18.1C37.6,18.1,37.6,18.1,37.6,18.1z"/>
		
			<linearGradient id="SVGID_2_" gradientUnits="userSpaceOnUse" x1="55.9293" y1="78.1836" x2="-5.1519" y2="25.6443" gradientTransform="matrix(1 0 0 -1 0 61.3948)">
			<stop  offset="0" style="stop-color:#940A80"/>
			<stop  offset="0.13" style="stop-color:#AF136E"/>
			<stop  offset="0.34" style="stop-color:#D82154"/>
			<stop  offset="0.45" style="stop-color:#E7264A"/>
			<stop  offset="0.55" style="stop-color:#E8343B"/>
			<stop  offset="0.85" style="stop-color:#EB5812"/>
			<stop  offset="1" style="stop-color:#EC6603"/>
		</linearGradient>
		<path class="st3" d="M35.6,13.2L12.7,3.6c-1.9-0.8-4,0.1-4.8,2C7.6,6,7.5,6.5,7.5,7v24.8l0,0V35c0,0.2,0,0.4,0,0.6
			c0.2-2.5,2.1-4.7,4.7-5.8l0.1,0l2-0.8L35.6,20c0.9-0.4,1.6-1,2-1.9C38.4,16.2,37.6,14.1,35.6,13.2C35.7,13.2,35.6,13.2,35.6,13.2z
			"/>
	</g>
	<line class="st4" x1="7.6" y1="35.7" x2="7.5" y2="35.2"/>
</g>
</svg>
